<svg xmlns="http://www.w3.org/2000/svg" viewBox="0 0 50 50" preserveAspectRatio="xMidYMid"><defs><style>.cls-1{fill:none;}.cls-2{fill:#fff;}</style></defs><g id="Layer_2" data-name="Layer 2"><g id="Layer_1-2" data-name="Layer 1"><rect class="cls-1" width="50" height="50"/><path class="cls-1" d="M27.28,29.33v7.42c0,1.12-2,5.14-2.28,5.14V26.4h.35a.7.7,0,0,1,.71.7v.53C26.06,28.29,27.28,28.78,27.28,29.33Z"/><path class="cls-1" d="M30.16,31.82a3.94,3.94,0,0,0,.33,1,1,1,0,0,0-.93-.53c-.7,0-.79,1.57-1.83,2.59V36s-.45.47-.45.74V30.09a6.3,6.3,0,0,0,2.49-1.82A2,2,0,0,1,31,27.32s1.91-.11,1.91.16C32.91,28.77,30.16,30.15,30.16,31.82Z"/><path class="cls-1" d="M34.22,23.11c0,1.28-2.13,3.61-3.22,4.21a2,2,0,0,0-1.23.95,6.3,6.3,0,0,1-2.49,1.82v-.76c0-.55-1.22-1-1.22-1.7V27.1a.7.7,0,0,0-.71-.7H25v-12a3.61,3.61,0,0,1,1.88-.66c1.7,0,5.26,1.53,5.79,2.4a3.34,3.34,0,0,1,.5,1.69c0,.71-.43.93-.43,2.52C32.74,21.16,34.22,22.64,34.22,23.11Z"/><path class="cls-1" d="M30.65,33.61c0,1.59-1.7,4.46-2.12,6.23-.34,1.46-.73,4.42-.88,5.91,0,.56-.12,2.27-.12,2.27H25.87A2.72,2.72,0,0,0,27,46.67a22.38,22.38,0,0,0,.78-5.24c.05-1.34,0-5.42,0-5.42V34.92c1-1,1.13-2.59,1.83-2.59a1,1,0,0,1,.93.53h0a1.72,1.72,0,0,1,.16.62Z"/><path class="cls-2" d="M24.72,26.4V41.57c-.63-1-2-3.89-2-4.82V29.33c0-.55,1.23-1,1.23-1.7V27.1a.7.7,0,0,1,.7-.7Z"/><path class="cls-2" d="M27.28,29.33v7.42c0,.93-1.37,3.85-2,4.82V26.4h.07a.7.7,0,0,1,.71.7v.53C26.06,28.29,27.28,28.78,27.28,29.33Z"/><path class="cls-2" d="M32.91,27.48c0,1.27-2.67,2.64-2.75,4.26a1.07,1.07,0,0,0-.6-.19c-.64,0-.91.68-1.19,1.41a6.07,6.07,0,0,1-.67,1.35v-4a6.28,6.28,0,0,0,2.42-1.86,1.66,1.66,0,0,1,.95-.77h.06l.07,0a4.5,4.5,0,0,0,.57-.39h0C32.3,27.3,32.91,27.33,32.91,27.48Z"/><path class="cls-2" d="M33.16,20.07a4.54,4.54,0,0,1,.25-1.35,2.48,2.48,0,0,0,.18-.87A3.71,3.71,0,0,0,33,15.94a1.33,1.33,0,0,0-.28-.33C46.12,15.11,48,7.08,46.37,1.35,51.13,6.64,48.44,19.83,33.16,20.07Z"/><path class="cls-2" d="M30.65,33.61c0,1.59-1.7,4.46-2.12,6.23-.34,1.46-.73,4.42-.88,5.91,0,.56-.12,2.27-.12,2.27H25.87A2.72,2.72,0,0,0,27,46.67a22.38,22.38,0,0,0,.78-5.24c.05-1.34,0-5.42,0-5.42V34.92a1.8,1.8,0,0,0,.19-.2c.86-1.06,1-2.75,1.64-2.75a1.08,1.08,0,0,1,.86.73l0,0a2.47,2.47,0,0,1,.21.75Z"/><path class="cls-2" d="M22.3,30.36v4A5.63,5.63,0,0,1,21.64,33c-.29-.73-.56-1.41-1.2-1.41a1.07,1.07,0,0,0-.6.19c-.08-1.62-2.75-3-2.75-4.26,0-.15.61-.18,1.14-.18h0a5.35,5.35,0,0,0,.57.39l.07,0h.07a1.69,1.69,0,0,1,.94.77A6.28,6.28,0,0,0,22.3,30.36Z"/><path class="cls-2" d="M17,15.94a3.71,3.71,0,0,0-.57,1.91,2.48,2.48,0,0,0,.18.87,4.54,4.54,0,0,1,.25,1.35C1.55,19.83-1.13,6.64,3.63,1.35,2,7.08,3.88,15.11,17.26,15.61A1.33,1.33,0,0,0,17,15.94Z"/><path class="cls-2" d="M23.13,13.76a3.36,3.36,0,0,1,1.59.48V26h-.07a1.12,1.12,0,0,0-1.12,1.12v.53c0,.15-.3.42-.51.61a1.57,1.57,0,0,0-.72,1.09v.55a7.5,7.5,0,0,1-.74-.42l-.28-.19-.16-.11-.12-.1a4.15,4.15,0,0,1-.57-.52l-.08-.1-.12-.17A2,2,0,0,0,19,27.32c-1.08-.6-3.22-2.93-3.22-4.21,0-.47,1.48-1.95,1.48-2.74v-.29c-.05-1.32-.43-1.56-.43-2.23a3.26,3.26,0,0,1,.51-1.69,1.94,1.94,0,0,1,.54-.54h0A12.12,12.12,0,0,1,23.13,13.76Z"/><path class="cls-2" d="M34.22,23.11c0,1.28-2.13,3.61-3.22,4.21a2,2,0,0,0-1.23.95l-.12.17a.39.39,0,0,1-.08.1,4.71,4.71,0,0,1-.56.52l-.13.1-.16.11-.28.19a7.5,7.5,0,0,1-.74.42v-.55A1.57,1.57,0,0,0,27,28.24c-.21-.19-.51-.46-.51-.61V27.1A1.12,1.12,0,0,0,25.35,26h-.07V14.24a3.37,3.37,0,0,1,1.6-.48,12.13,12.13,0,0,1,5.22,1.86h0a2.16,2.16,0,0,1,.55.54,3.34,3.34,0,0,1,.5,1.69c0,.67-.38.91-.43,2.23v.29C32.74,21.16,34.22,22.64,34.22,23.11Z"/><path class="cls-2" d="M26.07,43.68a8.93,8.93,0,0,1-.44,2.51A2.8,2.8,0,0,1,25,47a2.8,2.8,0,0,1-.63-.81,8.93,8.93,0,0,1-.44-2.51,2,2,0,0,1,1.07.39A2,2,0,0,1,26.07,43.68Z"/><path class="cls-2" d="M24.13,48H22.47s-.07-1.71-.12-2.27a58.88,58.88,0,0,0-.88-5.91c-.42-1.77-2.12-4.64-2.12-6.23v-.12a2.47,2.47,0,0,1,.21-.75l0,0a1.08,1.08,0,0,1,.86-.73c.66,0,.78,1.69,1.64,2.75a1.8,1.8,0,0,0,.19.2V36s-.05,4.08,0,5.42a22.38,22.38,0,0,0,.78,5.24A2.72,2.72,0,0,0,24.13,48Z"/><path class="cls-2" d="M32.69,6.05a2.85,2.85,0,0,1-2.52,4.46c-1.86,0-2.64-1.19-2.64-2.89A5,5,0,0,1,29.2,4.35C26.93,4.35,25.56,2.73,25,0c-.56,2.73-1.92,4.35-4.2,4.35a5,5,0,0,1,1.67,3.27c0,1.7-.79,2.89-2.64,2.89a2.85,2.85,0,0,1-2.52-4.46,5.49,5.49,0,0,1-3.7-1.19l4.05,7.74H32.34l4-7.74A5.49,5.49,0,0,1,32.69,6.05ZM25,10.17l-1.51-2.1L25,6l1.51,2.11Z"/><path class="cls-2" d="M30.17,9.28a1.88,1.88,0,0,0,1.1-.3L29,6.7a2.23,2.23,0,0,0-.23.92C28.76,9.16,29.48,9.28,30.17,9.28Z"/><path class="cls-2" d="M21.25,7.62A2.25,2.25,0,0,0,21,6.7L18.73,9a1.93,1.93,0,0,0,1.1.29C20.51,9.28,21.25,9.16,21.25,7.62Z"/><path class="cls-2" d="M45.63,4.91l-9.71,8.72-1.8-1.79-1,2H31.42a11.3,11.3,0,0,1,1,.56h.22a22.69,22.69,0,0,0,5.93-.93l7-7.75A6.84,6.84,0,0,0,45.63,4.91Z"/><path class="cls-2" d="M17.54,14.39a9.94,9.94,0,0,1,1-.56H16.92l-1-2-1.8,1.79L4.37,4.91a7.16,7.16,0,0,0,0,.8l7,7.74a22.69,22.69,0,0,0,5.93.93Z"/><path class="cls-2" d="M20.27,40.12a7.54,7.54,0,0,0-.27-.87L6.63,25.89l5.19-5.18a18.2,18.2,0,0,1-3.58-1.24L1.82,25.89,12.74,36.81.89,50,14.08,38.15l7,7C20.87,43.58,20.55,41.31,20.27,40.12Z"/><path class="cls-2" d="M48.56,2.39l.55-.61-.59.53S48.55,2.36,48.56,2.39Z"/><path class="cls-2" d="M48.18,25.89l-6.43-6.42a17.88,17.88,0,0,1-3.57,1.24l5.19,5.18L30,39.25a7.77,7.77,0,0,0-.28.87c-.28,1.19-.6,3.45-.78,5l7-7L49.11,50,37.26,36.81Z"/><path class="cls-2" d="M1.48,2.31.89,1.78l.55.61S1.47,2.34,1.48,2.31Z"/></g></g></svg>